<?xml version="1.0" encoding="utf-8" standalone="no"?>
<!DOCTYPE svg PUBLIC "-//W3C//DTD SVG 1.1//EN" "http://www.w3.org/Graphics/SVG/1.1/DTD/svg11.dtd">
<svg xmlns="http://www.w3.org/2000/svg" xmlns:xl="http://www.w3.org/1999/xlink" version="1.1" viewBox="222 159 285 240" width="285pt" height="20pc" xmlns:dc="http://purl.org/dc/elements/1.1/"><metadata> Produced by OmniGraffle 6.0.5 <dc:date>2014-09-19 16:35Z</dc:date></metadata><defs><marker orient="auto" overflow="visible" markerUnits="strokeWidth" id="FilledArrow_Marker" viewBox="-1 -4 8 8" markerWidth="8" markerHeight="8" color="#117b8d"><g><path d="M 5.8666667 0 L 0 -2.2 L 0 2.2 Z" fill="currentColor" stroke="currentColor" stroke-width="1"/></g></marker></defs><g stroke="none" stroke-opacity="1" stroke-dasharray="none" fill="none" fill-opacity="1"><title>Canvas 1</title><g><title>Layer 1</title><line x1="225" y1="288" x2="492.6" y2="288" marker-end="url(#FilledArrow_Marker)" stroke="#117b8d" stroke-linecap="square" stroke-linejoin="bevel" stroke-width="1.5"/><line x1="360" y1="396" x2="360" y2="173.4" marker-end="url(#FilledArrow_Marker)" stroke="#117b8d" stroke-linecap="square" stroke-linejoin="bevel" stroke-width="1.5"/><rect x="261" y="198" width="9" height="9" fill="#1d5aab"/><circle cx="418.5" cy="337.5" r="4.5000072" fill="#992727"/><rect x="279" y="216" width="9" height="9" fill="#1d5aab"/><rect x="297" y="234" width="9" height="9" fill="#1d5aab"/><rect x="270" y="243" width="9" height="9" fill="#1d5aab"/><rect x="324" y="216" width="9" height="9" fill="#1d5aab"/><rect x="369" y="216" width="9" height="9" fill="#1d5aab"/><rect x="324" y="252" width="9" height="9" fill="#1d5aab"/><rect x="297" y="288" width="9" height="9" fill="#1d5aab"/><circle cx="409.5" cy="355.5" r="4.5000072" fill="#992727"/><circle cx="400.5" cy="373.5" r="4.5000072" fill="#992727"/><circle cx="391.5" cy="328.5" r="4.5000072" fill="#992727"/><circle cx="418.5" cy="319.5" r="4.5000072" fill="#992727"/><circle cx="445.5" cy="319.5" r="4.5000072" fill="#992727"/><circle cx="400.5" cy="283.5" r="4.5000072" fill="#992727"/><circle cx="400.5" cy="301.5" r="4.5000072" fill="#992727"/><circle cx="382.5" cy="310.5" r="4.5000072" fill="#992727"/><circle cx="373.5" cy="328.5" r="4.5000072" fill="#992727"/><circle cx="346.5" cy="337.5" r="4.5000072" fill="#992727"/><circle cx="427.5" cy="292.5" r="4.5000072" fill="#992727"/><line x1="450" y1="198" x2="270" y2="369" stroke="#8c7c22" stroke-linecap="round" stroke-linejoin="round" stroke-width="1.5"/></g></g></svg>
