<?xml version="1.0" encoding="utf-8" standalone="no"?>
<!DOCTYPE svg PUBLIC "-//W3C//DTD SVG 1.1//EN" "http://www.w3.org/Graphics/SVG/1.1/DTD/svg11.dtd">
<svg xmlns="http://www.w3.org/2000/svg" xmlns:xl="http://www.w3.org/1999/xlink" version="1.1" viewBox="142 160 373 265" width="373pt" height="265pt" xmlns:dc="http://purl.org/dc/elements/1.1/"><metadata> Produced by OmniGraffle 6.1.3 <dc:date>2015-03-01 10:07:09 +0000</dc:date></metadata><defs><marker orient="auto" overflow="visible" markerUnits="strokeWidth" id="FilledArrow_Marker" viewBox="-9 -4 10 8" markerWidth="10" markerHeight="8" color="black"><g><path d="M -8 0 L 0 3 L 0 -3 Z" fill="currentColor" stroke="currentColor" stroke-width="1"/></g></marker></defs><g stroke="none" stroke-opacity="1" stroke-dasharray="none" fill="none" fill-opacity="1"><title>Canvas 1</title><g><title>Layer 1</title><line x1="315" y1="171.9" x2="315" y2="423" marker-start="url(#FilledArrow_Marker)" stroke="black" stroke-linecap="round" stroke-linejoin="round" stroke-width="1"/><line x1="503.1" y1="306" x2="144" y2="306" marker-start="url(#FilledArrow_Marker)" stroke="black" stroke-linecap="round" stroke-linejoin="round" stroke-width="1"/><rect x="279" y="225" width="9" height="9" fill="#1d5aab"/><rect x="243" y="225" width="9" height="9" fill="#1d5aab"/><rect x="207" y="288" width="9" height="9" fill="#1d5aab"/><rect x="252" y="279" width="9" height="9" fill="#1d5aab"/><rect x="234" y="324" width="9" height="9" fill="#1d5aab"/><rect x="351" y="234" width="9" height="9" fill="#1d5aab"/><rect x="288" y="279" width="9" height="9" fill="#1d5aab"/><circle cx="409.5" cy="337.5" r="4.5000072" fill="#ff8000"/><circle cx="391.5" cy="364.5" r="4.5000072" fill="#ff8000"/><circle cx="418.5" cy="373.5" r="4.5000072" fill="#ff8000"/><circle cx="355.5" cy="382.5" r="4.5000072" fill="#ff8000"/><circle cx="364.5" cy="346.5" r="4.5000072" fill="#ff8000"/><circle cx="373.5" cy="292.5" r="4.5000072" fill="#ff8000"/><circle cx="400.5" cy="391.5" r="4.5000072" fill="#ff8000"/><circle cx="274.5" cy="364.5" r="4.5000072" fill="#ff8000"/><circle cx="436.5" cy="256.5" r="4.5000072" fill="#ff8000"/><line x1="468" y1="207" x2="153" y2="414" stroke="black" stroke-linecap="round" stroke-linejoin="round" stroke-width="1"/></g></g></svg>
